<svg width="209" height="22" viewBox="0 0 209 22" fill="none" xmlns="http://www.w3.org/2000/svg">
<path d="M5.88 21.384C4.10933 21.384 2.84 20.968 2.072 20.136C1.304 19.2827 0.92 18.1627 0.92 16.776C0.92 16.4133 0.952 15.976 1.016 15.464C1.08 14.952 1.16533 14.3333 1.272 13.608C1.44267 12.5627 1.57067 11.6347 1.656 10.824C1.74133 9.992 1.784 9.08533 1.784 8.104C1.784 6.97333 1.752 6.056 1.688 5.352C1.32533 5.56533 1.05867 5.672 0.888 5.672C0.546667 5.672 0.376 5.288 0.376 4.52C0.376 3.92267 0.504 3.42133 0.76 3.016C1.03733 2.58933 1.48533 2.19467 2.104 1.832C2.72267 1.448 3.50133 1.11733 4.44 0.839998C5.4 0.562666 6.424 0.424 7.512 0.424C9.28267 0.424 10.6267 0.829333 11.544 1.64C12.4613 2.45067 12.92 3.51733 12.92 4.84C12.92 5.69333 12.7387 6.48267 12.376 7.208C12.0133 7.93333 11.5013 8.57333 10.84 9.128C13.5067 9.55467 14.84 11.0907 14.84 13.736C14.84 15.1653 14.4347 16.4667 13.624 17.64C12.8133 18.8133 11.7147 19.7307 10.328 20.392C8.984 21.0533 7.50133 21.384 5.88 21.384ZM7.16 17.832C8.12 17.832 8.984 17.704 9.752 17.448C10.5413 17.1707 11.1707 16.776 11.64 16.264C12.1093 15.752 12.344 15.1547 12.344 14.472C12.344 13.5973 12.0347 12.9787 11.416 12.616C10.7973 12.2533 10.0827 12.072 9.272 12.072C8.93067 12.072 8.504 12.104 7.992 12.168C7.77867 12.2107 7.53333 12.232 7.256 12.232C6.78667 12.232 6.392 12.04 6.072 11.656C5.77333 11.272 5.624 10.792 5.624 10.216C5.624 9.81067 5.80533 9.55467 6.168 9.448C8.77067 8.76533 10.072 7.58133 10.072 5.896C10.072 4.552 9.144 3.88 7.288 3.88C6.60533 3.88 5.76267 3.99733 4.76 4.232C4.76 5.27733 4.70667 6.376 4.6 7.528C4.49333 8.65867 4.33333 9.84267 4.12 11.08C3.992 11.9333 3.88533 12.6587 3.8 13.256C3.736 13.832 3.704 14.3013 3.704 14.664C3.704 15.816 3.992 16.6373 4.568 17.128C5.144 17.5973 6.008 17.832 7.16 17.832ZM19.8028 21.32C19.5468 21.32 19.2801 21.2773 19.0028 21.192C18.7468 21.1067 18.5334 20.904 18.3628 20.584C18.1921 20.264 18.1068 19.7733 18.1068 19.112C18.1068 18.6853 18.1388 18.1413 18.2028 17.48C18.2881 16.7973 18.3734 16.136 18.4588 15.496C18.6294 14.4293 18.7788 13.256 18.9068 11.976C19.0561 10.696 19.1308 9.42667 19.1308 8.168C19.1308 7.72 19.1201 7.25067 19.0988 6.76C19.0774 6.26933 19.0348 5.8 18.9708 5.352C18.8428 5.416 18.6934 5.48 18.5228 5.544C18.3734 5.58667 18.2454 5.608 18.1388 5.608C17.9254 5.608 17.7761 5.50133 17.6908 5.288C17.6268 5.05333 17.5948 4.78667 17.5948 4.488C17.5948 3.80533 17.7548 3.26133 18.0748 2.856C18.4161 2.42933 18.9174 2.04533 19.5788 1.704C20.4534 1.21333 21.3814 0.861332 22.3628 0.647999C23.3654 0.413333 24.3148 0.296 25.2108 0.296C26.5334 0.296 27.7068 0.530666 28.7308 1C29.7548 1.46933 30.5548 2.13067 31.1308 2.984C31.7068 3.83733 31.9948 4.86133 31.9948 6.056C31.9948 7.29333 31.6961 8.392 31.0988 9.352C30.5228 10.312 29.7761 11.1013 28.8588 11.72C27.9628 12.3173 27.0454 12.712 26.1068 12.904C26.4481 13.4373 26.8108 13.9707 27.1948 14.504C27.6001 15.0373 28.0054 15.5173 28.4108 15.944C29.6268 17.2027 30.8641 17.832 32.1228 17.832C32.4641 17.832 32.7628 17.8107 33.0188 17.768C33.1468 17.7467 33.2534 17.8 33.3388 17.928C33.4454 18.0347 33.4988 18.2587 33.4988 18.6C33.4988 19.0053 33.4134 19.4213 33.2428 19.848C33.0721 20.2533 32.7841 20.5947 32.3787 20.872C31.9734 21.1493 31.4188 21.288 30.7148 21.288C29.8828 21.288 29.0828 21.0107 28.3148 20.456C27.5681 19.9013 26.8748 19.1973 26.2348 18.344C25.5948 17.4693 25.0188 16.552 24.5068 15.592C24.0161 14.632 23.6001 13.7467 23.2588 12.936C23.1734 12.7013 23.0988 12.4773 23.0348 12.264C22.9708 12.0293 22.9388 11.8053 22.9388 11.592C22.9388 11.2293 23.0561 10.9307 23.2908 10.696C23.4614 10.5253 23.6961 10.408 23.9948 10.344C24.3148 10.28 24.7734 10.248 25.3708 10.248C26.5014 10.248 27.4188 9.93867 28.1228 9.32C28.8268 8.70133 29.1788 7.90133 29.1788 6.92C29.1788 5.85333 28.7734 5.07467 27.9628 4.584C27.1734 4.09333 26.2028 3.848 25.0508 3.848C24.1121 3.848 23.1308 3.99733 22.1068 4.296C22.0428 5.68267 21.8934 7.272 21.6588 9.064C21.5308 10.1307 21.4134 11.1867 21.3068 12.232C21.2214 13.2773 21.1788 14.2267 21.1788 15.08C21.1788 15.8267 21.2428 16.488 21.3708 17.064C21.5201 17.6187 21.8081 18.0987 22.2348 18.504C22.5334 18.8027 22.6828 19.1227 22.6828 19.464C22.6828 19.9333 22.4161 20.36 21.8828 20.744C21.3494 21.128 20.6561 21.32 19.8028 21.32ZM37.8385 21.32C37.3265 21.32 36.9105 21.1813 36.5905 20.904C36.2705 20.6267 36.1105 20.0613 36.1105 19.208C36.1105 18.7813 36.1532 18.2267 36.2385 17.544C36.3238 16.8613 36.4092 16.1787 36.4945 15.496C36.7292 13.9813 36.8998 12.6693 37.0065 11.56C37.1132 10.4507 37.1665 9.32 37.1665 8.168C37.1665 7.10133 37.1025 6.10933 36.9745 5.192C36.8678 4.27467 36.5798 3.48533 36.1105 2.824C35.9398 2.54667 35.8545 2.33333 35.8545 2.184C35.8545 1.928 35.9932 1.66133 36.2705 1.384C36.5692 1.08533 36.9212 0.839999 37.3265 0.647999C37.7532 0.455999 38.1478 0.359999 38.5105 0.359999C39.1718 0.359999 39.6092 0.658665 39.8225 1.256C40.0572 1.832 40.1745 2.55733 40.1745 3.432C40.1745 3.96533 40.1425 4.62667 40.0785 5.416C40.0145 6.20533 39.9398 6.97333 39.8545 7.72C39.7905 8.44533 39.7265 9.01067 39.6625 9.416C39.5132 10.5467 39.3958 11.6027 39.3105 12.584C39.2252 13.5653 39.1825 14.3973 39.1825 15.08C39.1825 15.8907 39.2572 16.5733 39.4065 17.128C39.5772 17.6827 39.8652 18.1413 40.2705 18.504C40.5478 18.76 40.6865 19.048 40.6865 19.368C40.6865 19.88 40.4198 20.3387 39.8865 20.744C39.3745 21.128 38.6918 21.32 37.8385 21.32ZM48.8093 21.416C48.0199 21.416 47.2946 21.3413 46.6333 21.192C45.9719 21.0427 45.4279 20.7653 45.0013 20.36C44.6813 20.0613 44.4679 19.7307 44.3613 19.368C44.2546 18.984 44.2013 18.568 44.2013 18.12C44.2013 17.3947 44.2653 16.6693 44.3932 15.944C44.5853 14.6853 44.7559 13.3307 44.9053 11.88C45.0546 10.4293 45.1293 9.08533 45.1293 7.848C45.1293 7.464 45.1079 7.02667 45.0653 6.536C45.0439 6.04533 45.0013 5.58667 44.9373 5.16C44.7879 5.224 44.6386 5.288 44.4893 5.352C44.3613 5.39467 44.2439 5.416 44.1373 5.416C43.9453 5.416 43.8173 5.32 43.7533 5.128C43.6893 4.936 43.6573 4.72267 43.6573 4.488C43.6573 3.86933 43.7959 3.34667 44.0733 2.92C44.3719 2.472 44.8519 2.07733 45.5133 1.736C46.2173 1.352 47.1346 1.02133 48.2653 0.743999C49.4173 0.445333 50.5799 0.296 51.7533 0.296C54.4199 0.296 56.5106 1.08533 58.0253 2.664C59.5613 4.22133 60.3293 6.44 60.3293 9.32C60.3293 10.9627 60.0733 12.52 59.5613 13.992C59.0706 15.4427 58.3346 16.7333 57.3533 17.864C56.3719 18.9733 55.1666 19.848 53.7373 20.488C52.3079 21.1067 50.6653 21.416 48.8093 21.416ZM49.8333 17.832C50.7933 17.832 51.7533 17.6827 52.7133 17.384C53.6733 17.0853 54.5373 16.6373 55.3053 16.04C56.0946 15.4427 56.7239 14.6853 57.1933 13.768C57.6626 12.8293 57.8973 11.7093 57.8973 10.408C57.8973 8.936 57.6093 7.72 57.0333 6.76C56.4573 5.8 55.6893 5.08533 54.7293 4.616C53.7693 4.14667 52.7026 3.912 51.5293 3.912C50.8893 3.912 50.2493 3.96533 49.6093 4.072C48.9906 4.17867 48.4999 4.28533 48.1373 4.392C48.1159 5.37333 48.0519 6.33333 47.9453 7.272C47.8599 8.18933 47.7533 9.08533 47.6253 9.96C47.4973 10.8773 47.3906 11.7733 47.3053 12.648C47.2413 13.5227 47.2093 14.3867 47.2093 15.24C47.2093 16.3067 47.4226 17.0107 47.8493 17.352C48.2973 17.672 48.9586 17.832 49.8333 17.832ZM77.7292 21.352C77.0679 21.352 76.5026 21.0747 76.0333 20.52C75.5853 19.944 75.1479 19.0053 74.7213 17.704C74.5079 17.064 74.3266 16.4453 74.1773 15.848C74.0493 15.2293 73.9533 14.632 73.8893 14.056C73.6119 14.4827 73.3559 14.7707 73.1213 14.92C72.9079 15.048 72.5879 15.112 72.1613 15.112C71.1159 15.112 70.0066 15.1013 68.8333 15.08C67.6599 15.0373 66.6146 15.0053 65.6973 14.984C65.6546 15.368 65.6119 15.7627 65.5693 16.168C65.5479 16.552 65.5373 16.936 65.5373 17.32C65.5373 17.6613 65.5479 18.0027 65.5693 18.344C65.6119 18.6853 65.6439 19.016 65.6653 19.336C65.7293 19.9333 65.4946 20.4133 64.9613 20.776C64.4279 21.1387 63.7666 21.32 62.9773 21.32C62.2946 21.32 61.9533 21.0213 61.9533 20.424C61.9533 20.0613 62.0493 19.5173 62.2413 18.792C62.3479 18.3013 62.4333 17.8853 62.4973 17.544C62.5613 17.1813 62.5933 16.8933 62.5933 16.68C62.5933 16.0827 62.4119 15.6773 62.0493 15.464C61.7506 15.2933 61.6013 15.0693 61.6013 14.792C61.6013 14.536 61.6546 14.2267 61.7613 13.864C61.8893 13.5013 62.0493 13.1707 62.2413 12.872C62.4333 12.552 62.6146 12.328 62.7853 12.2C62.9346 12.1147 63.1159 12.04 63.3293 11.976C63.5426 11.912 63.8093 11.8693 64.1293 11.848C64.9613 9.45867 65.8893 7.4 66.9133 5.672C67.9586 3.92267 69.0679 2.57867 70.2413 1.64C71.4146 0.679999 72.6093 0.199999 73.8253 0.199999C74.5719 0.199999 75.1159 0.455999 75.4573 0.967999C75.7986 1.45867 75.9693 2.29067 75.9693 3.464V4.904C75.9693 7.05867 76.1293 9.04267 76.4493 10.856C76.7693 12.6693 77.1639 14.1413 77.6333 15.272C78.1026 16.4667 78.7533 17.448 79.5853 18.216C79.8413 18.4293 80.0119 18.6213 80.0972 18.792C80.1826 18.9413 80.2253 19.1013 80.2253 19.272C80.2253 19.592 80.0973 19.912 79.8413 20.232C79.6066 20.552 79.2973 20.8187 78.9132 21.032C78.5293 21.2453 78.1346 21.352 77.7292 21.352ZM66.6573 11.656C67.7026 11.6133 68.6199 11.5813 69.4093 11.56C70.1986 11.5173 70.8599 11.496 71.3933 11.496H73.6333C73.5906 10.8987 73.5479 10.2693 73.5053 9.608C73.4839 8.94667 73.4733 8.25333 73.4733 7.528V5.672C73.4733 5.05333 73.3986 4.648 73.2493 4.456C73.1213 4.24267 72.8653 4.136 72.4813 4.136C71.4359 4.136 70.3906 4.81867 69.3453 6.184C68.2999 7.54933 67.4039 9.37333 66.6573 11.656ZM87.8615 21.416C86.4108 21.416 85.2908 21.256 84.5015 20.936C83.7122 20.616 83.1682 20.168 82.8695 19.592C82.5708 19.016 82.4215 18.3333 82.4215 17.544C82.4215 17.16 82.4535 16.7333 82.5175 16.264C82.5815 15.7733 82.6562 15.2187 82.7415 14.6C83.1255 12.2533 83.3175 10.1733 83.3175 8.36C83.3175 7.16533 83.2642 6.152 83.1575 5.32C83.0722 4.46667 82.7948 3.656 82.3255 2.888C82.2402 2.76 82.1655 2.632 82.1015 2.504C82.0375 2.35467 82.0055 2.23733 82.0055 2.152C82.0055 1.896 82.1548 1.62933 82.4535 1.352C82.7522 1.07467 83.1148 0.839999 83.5415 0.647999C83.9682 0.455999 84.3735 0.359999 84.7575 0.359999C85.4828 0.359999 85.9308 0.647999 86.1015 1.224C86.2935 1.8 86.3895 2.62133 86.3895 3.688C86.3895 4.09333 86.3468 4.744 86.2615 5.64C86.1762 6.51467 86.0482 7.63467 85.8775 9C85.7068 10.3227 85.5788 11.464 85.4935 12.424C85.4082 13.384 85.3655 14.152 85.3655 14.728C85.3655 15.5813 85.4615 16.232 85.6535 16.68C85.8668 17.1067 86.2082 17.4053 86.6775 17.576C87.1468 17.7467 87.8082 17.832 88.6615 17.832C89.5788 17.832 90.4535 17.7573 91.2855 17.608C92.1175 17.4373 92.9282 17.1813 93.7175 16.84C93.8242 16.7973 93.9202 16.7653 94.0055 16.744C94.0908 16.7227 94.1655 16.712 94.2295 16.712C94.4215 16.712 94.6028 16.8293 94.7735 17.064C94.9442 17.2987 95.0295 17.6293 95.0295 18.056C95.0295 18.9947 94.5175 19.7307 93.4935 20.264C92.1282 21.032 90.2508 21.416 87.8615 21.416ZM106.856 21.32C106.386 21.32 105.981 21.2027 105.64 20.968C105.32 20.712 105.16 20.1253 105.16 19.208C105.16 18.7387 105.202 18.1733 105.288 17.512C105.394 16.8293 105.501 16.1253 105.608 15.4C105.778 14.376 105.949 13.256 106.12 12.04C106.29 10.8027 106.376 9.576 106.376 8.36C106.376 7.08 106.333 6.09867 106.248 5.416C106.162 4.73333 106.066 4.17867 105.96 3.752C105.917 3.51733 105.874 3.304 105.832 3.112C105.81 2.92 105.799 2.70667 105.799 2.472C105.799 1.78933 106.013 1.27733 106.44 0.935999C106.888 0.573332 107.378 0.391998 107.911 0.391998C108.445 0.391998 108.893 0.530665 109.256 0.807999C109.618 1.064 109.938 1.34133 110.216 1.64C112.05 3.70933 113.704 5.88533 115.176 8.168C116.648 10.4293 117.874 12.7547 118.856 15.144C118.962 15.3147 119.058 15.4 119.144 15.4C119.272 15.4 119.357 15.3147 119.4 15.144C119.784 12.648 119.976 10.3867 119.976 8.36C119.976 7.144 119.922 6.184 119.816 5.48C119.73 4.75467 119.613 4.2 119.464 3.816C119.336 3.41067 119.208 3.09067 119.08 2.856C119.016 2.70667 118.962 2.57867 118.92 2.472C118.877 2.344 118.856 2.22667 118.856 2.12C118.856 1.864 118.984 1.608 119.24 1.352C119.517 1.07467 119.848 0.850665 120.232 0.679998C120.616 0.509333 120.989 0.424 121.352 0.424C121.864 0.424 122.237 0.594666 122.472 0.935999C122.706 1.27733 122.856 1.704 122.92 2.216C123.005 2.70667 123.048 3.208 123.048 3.72C123.048 4.296 122.994 5.04267 122.888 5.96C122.781 6.87733 122.653 7.86933 122.503 8.936C122.376 9.98133 122.258 11.016 122.152 12.04C122.066 13.064 122.024 13.9707 122.024 14.76C122.024 15.208 122.034 15.6453 122.056 16.072C122.098 16.4987 122.141 16.9147 122.184 17.32C122.248 17.8533 122.28 18.3227 122.28 18.728C122.28 19.5173 122.077 20.1467 121.672 20.616C121.288 21.064 120.754 21.288 120.072 21.288C119.602 21.288 119.133 21.1493 118.664 20.872C118.216 20.5947 117.874 20.1467 117.64 19.528C116.722 17.1813 115.592 14.8987 114.248 12.68C112.925 10.44 111.538 8.50933 110.088 6.888C109.853 6.67467 109.661 6.568 109.512 6.568C109.298 6.568 109.16 6.80267 109.096 7.272C108.989 8.08267 108.882 8.968 108.776 9.928C108.669 10.888 108.584 11.8267 108.52 12.744C108.456 13.64 108.424 14.408 108.424 15.048C108.424 15.7733 108.488 16.4027 108.616 16.936C108.744 17.448 108.936 17.9493 109.192 18.44C109.426 18.8667 109.544 19.2507 109.544 19.592C109.544 19.9973 109.309 20.392 108.84 20.776C108.37 21.1387 107.709 21.32 106.856 21.32ZM133.27 21.416C131.03 21.416 129.355 20.8293 128.246 19.656C127.136 18.4613 126.582 16.5947 126.582 14.056C126.582 13.6293 126.592 13.1813 126.614 12.712C126.656 12.2427 126.699 11.784 126.742 11.336C126.784 10.9093 126.816 10.4827 126.838 10.056C126.859 9.62933 126.87 9.24533 126.87 8.904C126.87 7.624 126.816 6.51467 126.71 5.576C126.603 4.63733 126.283 3.74133 125.75 2.888C125.579 2.61067 125.493 2.38667 125.493 2.216C125.493 1.93867 125.643 1.672 125.942 1.416C126.262 1.13867 126.635 0.904 127.062 0.712C127.488 0.52 127.894 0.424 128.278 0.424C128.79 0.424 129.152 0.594666 129.366 0.935999C129.6 1.27733 129.75 1.704 129.814 2.216C129.878 2.70667 129.91 3.208 129.91 3.72C129.91 4.25333 129.878 4.84 129.814 5.48C129.771 6.12 129.696 6.81333 129.59 7.56C129.504 8.37067 129.419 9.224 129.334 10.12C129.27 10.9947 129.238 11.88 129.238 12.776C129.238 14.0133 129.451 15.0053 129.878 15.752C130.326 16.4773 130.923 17.0107 131.67 17.352C132.438 17.672 133.291 17.832 134.23 17.832C135.872 17.832 137.11 17.416 137.942 16.584C138.774 15.7307 139.35 14.6213 139.67 13.256C139.819 12.6373 139.936 11.9333 140.022 11.144C140.107 10.3333 140.15 9.512 140.15 8.68C140.15 7.63467 140.075 6.632 139.926 5.672C139.798 4.712 139.531 3.86933 139.126 3.144C139.04 2.97333 138.966 2.824 138.902 2.696C138.838 2.568 138.806 2.42933 138.806 2.28C138.806 1.98133 138.934 1.69333 139.19 1.416C139.446 1.11733 139.766 0.882666 140.15 0.712C140.534 0.52 140.928 0.424 141.333 0.424C142.016 0.424 142.475 0.711999 142.71 1.288C142.944 1.864 143.062 2.536 143.062 3.304C143.062 3.77333 143.019 4.456 142.934 5.352C142.87 6.248 142.774 7.208 142.646 8.232C142.518 9.256 142.39 10.2267 142.262 11.144C142.134 12.04 142.016 12.7333 141.91 13.224C141.376 15.7627 140.438 17.768 139.094 19.24C137.75 20.6907 135.808 21.416 133.27 21.416ZM151.224 21.384C149.453 21.384 148.184 20.968 147.416 20.136C146.648 19.2827 146.264 18.1627 146.264 16.776C146.264 16.4133 146.296 15.976 146.36 15.464C146.424 14.952 146.509 14.3333 146.616 13.608C146.786 12.5627 146.914 11.6347 147 10.824C147.085 9.992 147.128 9.08533 147.128 8.104C147.128 6.97333 147.096 6.056 147.032 5.352C146.669 5.56533 146.402 5.672 146.232 5.672C145.89 5.672 145.72 5.288 145.72 4.52C145.72 3.92267 145.848 3.42133 146.104 3.016C146.381 2.58933 146.829 2.19467 147.448 1.832C148.066 1.448 148.845 1.11733 149.784 0.839998C150.744 0.562666 151.768 0.424 152.856 0.424C154.626 0.424 155.97 0.829333 156.888 1.64C157.805 2.45067 158.264 3.51733 158.264 4.84C158.264 5.69333 158.082 6.48267 157.72 7.208C157.357 7.93333 156.845 8.57333 156.184 9.128C158.85 9.55467 160.184 11.0907 160.184 13.736C160.184 15.1653 159.778 16.4667 158.968 17.64C158.157 18.8133 157.058 19.7307 155.672 20.392C154.328 21.0533 152.845 21.384 151.224 21.384ZM152.504 17.832C153.464 17.832 154.328 17.704 155.096 17.448C155.885 17.1707 156.514 16.776 156.984 16.264C157.453 15.752 157.688 15.1547 157.688 14.472C157.688 13.5973 157.378 12.9787 156.76 12.616C156.141 12.2533 155.426 12.072 154.616 12.072C154.274 12.072 153.848 12.104 153.336 12.168C153.122 12.2107 152.877 12.232 152.6 12.232C152.13 12.232 151.736 12.04 151.416 11.656C151.117 11.272 150.968 10.792 150.968 10.216C150.968 9.81067 151.149 9.55467 151.512 9.448C154.114 8.76533 155.416 7.58133 155.416 5.896C155.416 4.552 154.488 3.88 152.632 3.88C151.949 3.88 151.106 3.99733 150.104 4.232C150.104 5.27733 150.05 6.376 149.944 7.528C149.837 8.65867 149.677 9.84267 149.464 11.08C149.336 11.9333 149.229 12.6587 149.144 13.256C149.08 13.832 149.048 14.3013 149.048 14.664C149.048 15.816 149.336 16.6373 149.912 17.128C150.488 17.5973 151.352 17.832 152.504 17.832ZM165.339 21.32C164.827 21.32 164.411 21.1813 164.091 20.904C163.771 20.6267 163.611 20.0613 163.611 19.208C163.611 18.7813 163.653 18.2267 163.739 17.544C163.824 16.8613 163.909 16.1787 163.995 15.496C164.229 13.9813 164.4 12.6693 164.507 11.56C164.613 10.4507 164.667 9.32 164.667 8.168C164.667 7.10133 164.603 6.10933 164.475 5.192C164.368 4.27467 164.08 3.48533 163.611 2.824C163.44 2.54667 163.355 2.33333 163.355 2.184C163.355 1.928 163.493 1.66133 163.771 1.384C164.069 1.08533 164.421 0.839999 164.827 0.647999C165.253 0.455999 165.648 0.359999 166.011 0.359999C166.672 0.359999 167.109 0.658665 167.323 1.256C167.557 1.832 167.675 2.55733 167.675 3.432C167.675 3.96533 167.643 4.62667 167.579 5.416C167.515 6.20533 167.44 6.97333 167.355 7.72C167.291 8.44533 167.227 9.01067 167.163 9.416C167.013 10.5467 166.896 11.6027 166.811 12.584C166.725 13.5653 166.683 14.3973 166.683 15.08C166.683 15.8907 166.757 16.5733 166.907 17.128C167.077 17.6827 167.365 18.1413 167.771 18.504C168.048 18.76 168.187 19.048 168.187 19.368C168.187 19.88 167.92 20.3387 167.387 20.744C166.875 21.128 166.192 21.32 165.339 21.32ZM186.229 21.352C185.568 21.352 185.003 21.0747 184.533 20.52C184.085 19.944 183.648 19.0053 183.221 17.704C183.008 17.064 182.827 16.4453 182.677 15.848C182.549 15.2293 182.453 14.632 182.389 14.056C182.112 14.4827 181.856 14.7707 181.621 14.92C181.408 15.048 181.088 15.112 180.661 15.112C179.616 15.112 178.507 15.1013 177.333 15.08C176.16 15.0373 175.115 15.0053 174.197 14.984C174.155 15.368 174.112 15.7627 174.069 16.168C174.048 16.552 174.037 16.936 174.037 17.32C174.037 17.6613 174.048 18.0027 174.069 18.344C174.112 18.6853 174.144 19.016 174.165 19.336C174.229 19.9333 173.995 20.4133 173.461 20.776C172.928 21.1387 172.267 21.32 171.477 21.32C170.795 21.32 170.453 21.0213 170.453 20.424C170.453 20.0613 170.549 19.5173 170.741 18.792C170.848 18.3013 170.933 17.8853 170.997 17.544C171.061 17.1813 171.093 16.8933 171.093 16.68C171.093 16.0827 170.912 15.6773 170.549 15.464C170.251 15.2933 170.101 15.0693 170.101 14.792C170.101 14.536 170.155 14.2267 170.261 13.864C170.389 13.5013 170.549 13.1707 170.741 12.872C170.933 12.552 171.115 12.328 171.285 12.2C171.435 12.1147 171.616 12.04 171.829 11.976C172.043 11.912 172.309 11.8693 172.629 11.848C173.461 9.45867 174.389 7.4 175.413 5.672C176.459 3.92267 177.568 2.57867 178.741 1.64C179.915 0.679999 181.109 0.199999 182.325 0.199999C183.072 0.199999 183.616 0.455999 183.957 0.967999C184.299 1.45867 184.469 2.29067 184.469 3.464V4.904C184.469 7.05867 184.629 9.04267 184.949 10.856C185.269 12.6693 185.664 14.1413 186.133 15.272C186.603 16.4667 187.253 17.448 188.085 18.216C188.341 18.4293 188.512 18.6213 188.597 18.792C188.683 18.9413 188.725 19.1013 188.725 19.272C188.725 19.592 188.597 19.912 188.341 20.232C188.107 20.552 187.797 20.8187 187.413 21.032C187.029 21.2453 186.635 21.352 186.229 21.352ZM175.157 11.656C176.203 11.6133 177.12 11.5813 177.909 11.56C178.699 11.5173 179.36 11.496 179.893 11.496H182.133C182.091 10.8987 182.048 10.2693 182.005 9.608C181.984 8.94667 181.973 8.25333 181.973 7.528V5.672C181.973 5.05333 181.899 4.648 181.749 4.456C181.621 4.24267 181.365 4.136 180.981 4.136C179.936 4.136 178.891 4.81867 177.845 6.184C176.8 7.54933 175.904 9.37333 175.157 11.656ZM192.106 21.32C191.636 21.32 191.231 21.2027 190.89 20.968C190.57 20.712 190.41 20.1253 190.41 19.208C190.41 18.7387 190.452 18.1733 190.538 17.512C190.644 16.8293 190.751 16.1253 190.858 15.4C191.028 14.376 191.199 13.256 191.37 12.04C191.54 10.8027 191.626 9.576 191.626 8.36C191.626 7.08 191.583 6.09867 191.498 5.416C191.412 4.73333 191.316 4.17867 191.21 3.752C191.167 3.51733 191.124 3.304 191.082 3.112C191.06 2.92 191.049 2.70667 191.049 2.472C191.049 1.78933 191.263 1.27733 191.69 0.935999C192.138 0.573332 192.628 0.391998 193.161 0.391998C193.695 0.391998 194.143 0.530665 194.506 0.807999C194.868 1.064 195.188 1.34133 195.466 1.64C197.3 3.70933 198.954 5.88533 200.426 8.168C201.898 10.4293 203.124 12.7547 204.106 15.144C204.212 15.3147 204.308 15.4 204.394 15.4C204.522 15.4 204.607 15.3147 204.65 15.144C205.034 12.648 205.226 10.3867 205.226 8.36C205.226 7.144 205.172 6.184 205.066 5.48C204.98 4.75467 204.863 4.2 204.714 3.816C204.586 3.41067 204.458 3.09067 204.33 2.856C204.266 2.70667 204.212 2.57867 204.17 2.472C204.127 2.344 204.106 2.22667 204.106 2.12C204.106 1.864 204.234 1.608 204.49 1.352C204.767 1.07467 205.098 0.850665 205.482 0.679998C205.866 0.509333 206.239 0.424 206.602 0.424C207.114 0.424 207.487 0.594666 207.722 0.935999C207.956 1.27733 208.106 1.704 208.17 2.216C208.255 2.70667 208.298 3.208 208.298 3.72C208.298 4.296 208.244 5.04267 208.138 5.96C208.031 6.87733 207.903 7.86933 207.753 8.936C207.626 9.98133 207.508 11.016 207.402 12.04C207.316 13.064 207.274 13.9707 207.274 14.76C207.274 15.208 207.284 15.6453 207.306 16.072C207.348 16.4987 207.391 16.9147 207.434 17.32C207.498 17.8533 207.53 18.3227 207.53 18.728C207.53 19.5173 207.327 20.1467 206.922 20.616C206.538 21.064 206.004 21.288 205.322 21.288C204.852 21.288 204.383 21.1493 203.914 20.872C203.466 20.5947 203.124 20.1467 202.89 19.528C201.972 17.1813 200.842 14.8987 199.498 12.68C198.175 10.44 196.788 8.50933 195.338 6.888C195.103 6.67467 194.911 6.568 194.762 6.568C194.548 6.568 194.41 6.80267 194.346 7.272C194.239 8.08267 194.132 8.968 194.026 9.928C193.919 10.888 193.834 11.8267 193.77 12.744C193.706 13.64 193.674 14.408 193.674 15.048C193.674 15.7733 193.738 16.4027 193.866 16.936C193.994 17.448 194.186 17.9493 194.442 18.44C194.676 18.8667 194.794 19.2507 194.794 19.592C194.794 19.9973 194.559 20.392 194.09 20.776C193.62 21.1387 192.959 21.32 192.106 21.32Z" fill="#251813"/>
</svg>
