<svg width="311" height="17" viewBox="0 0 311 17" fill="none" xmlns="http://www.w3.org/2000/svg">
<path d="M5.62374 16.336C5.07974 16.336 4.65574 16.184 4.35174 15.88C4.06374 15.56 3.90374 14.96 3.87174 14.08C3.85574 13.136 3.80774 12.2 3.72774 11.272C3.64774 10.344 3.51974 9.464 3.34374 8.632C3.10374 7.416 2.77574 6.32 2.35974 5.344C1.94374 4.368 1.35974 3.528 0.607745 2.824C0.479745 2.696 0.375745 2.576 0.295745 2.464C0.215745 2.352 0.175745 2.224 0.175745 2.08C0.175745 1.744 0.351745 1.424 0.703745 1.12C1.05574 0.799999 1.47174 0.639999 1.95174 0.639999C2.51174 0.639999 2.99174 0.879999 3.39174 1.36C3.79174 1.84 4.13574 2.512 4.42374 3.376C4.75974 4.256 5.02374 5.216 5.21574 6.256C5.40774 7.296 5.53574 8.36 5.59974 9.448C5.67974 10.52 5.71974 11.56 5.71974 12.568C5.71974 12.92 5.76774 13.152 5.86374 13.264C5.95974 13.376 6.12774 13.432 6.36774 13.432C6.89574 13.432 7.41574 13.272 7.92774 12.952C8.45574 12.632 8.92775 12.2 9.34374 11.656C9.77575 11.096 10.1197 10.48 10.3757 9.808C10.6317 9.136 10.7677 8.456 10.7837 7.768C10.7997 7.048 10.6717 6.352 10.3997 5.68C10.1437 4.992 9.80774 4.408 9.39175 3.928C9.27975 3.8 9.19175 3.688 9.12774 3.592C9.07975 3.48 9.05575 3.368 9.05575 3.256C9.05575 3 9.15974 2.752 9.36774 2.512C9.57574 2.272 9.81574 2.072 10.0877 1.912C10.3597 1.752 10.5917 1.672 10.7837 1.672C11.1837 1.672 11.5197 1.968 11.7917 2.56C12.0797 3.136 12.3197 3.84 12.5117 4.672C12.7837 5.728 12.9757 6.912 13.0877 8.224C13.1997 9.536 13.2557 10.92 13.2557 12.376C13.2557 12.776 13.2957 13.048 13.3757 13.192C13.4557 13.336 13.6317 13.408 13.9037 13.408C14.4797 13.408 15.0397 13.2 15.5837 12.784C16.1277 12.368 16.6077 11.8 17.0237 11.08C17.4557 10.344 17.7917 9.512 18.0317 8.584C18.2877 7.64 18.4157 6.648 18.4157 5.608C18.4157 4.824 18.3517 4.192 18.2237 3.712C18.1117 3.216 17.9997 2.864 17.8877 2.656C17.7277 2.352 17.6477 2.096 17.6477 1.888C17.6477 1.648 17.7517 1.424 17.9597 1.216C18.1837 0.991999 18.4477 0.807999 18.7517 0.663999C19.0557 0.52 19.3197 0.448 19.5437 0.448C19.8957 0.448 20.1437 0.6 20.2877 0.904C20.4477 1.192 20.5437 1.552 20.5757 1.984C20.6237 2.416 20.6477 2.824 20.6477 3.208C20.6477 4.312 20.5277 5.472 20.2877 6.688C20.0637 7.888 19.7357 9.064 19.3037 10.216C18.8717 11.352 18.3517 12.384 17.7437 13.312C17.1517 14.224 16.4797 14.96 15.7277 15.52C14.9757 16.064 14.1677 16.336 13.3037 16.336C12.7277 16.336 12.3037 16.208 12.0317 15.952C11.7597 15.696 11.5837 15.336 11.5037 14.872C11.4237 14.408 11.3837 13.864 11.3837 13.24C11.3837 12.872 11.3837 12.528 11.3837 12.208C11.3997 11.872 11.4077 11.568 11.4077 11.296C10.6717 12.944 9.78374 14.2 8.74374 15.064C7.70374 15.912 6.66374 16.336 5.62374 16.336ZM29.1297 16.336C28.5857 16.336 28.1617 16.184 27.8577 15.88C27.5697 15.56 27.4097 14.96 27.3777 14.08C27.3617 13.136 27.3137 12.2 27.2337 11.272C27.1537 10.344 27.0257 9.464 26.8497 8.632C26.6097 7.416 26.2817 6.32 25.8657 5.344C25.4497 4.368 24.8657 3.528 24.1137 2.824C23.9857 2.696 23.8817 2.576 23.8017 2.464C23.7217 2.352 23.6817 2.224 23.6817 2.08C23.6817 1.744 23.8577 1.424 24.2097 1.12C24.5617 0.799999 24.9777 0.639999 25.4577 0.639999C26.0177 0.639999 26.4977 0.879999 26.8977 1.36C27.2977 1.84 27.6417 2.512 27.9297 3.376C28.2657 4.256 28.5297 5.216 28.7217 6.256C28.9137 7.296 29.0417 8.36 29.1057 9.448C29.1857 10.52 29.2257 11.56 29.2257 12.568C29.2257 12.92 29.2737 13.152 29.3697 13.264C29.4657 13.376 29.6337 13.432 29.8737 13.432C30.4017 13.432 30.9217 13.272 31.4337 12.952C31.9617 12.632 32.4337 12.2 32.8497 11.656C33.2817 11.096 33.6257 10.48 33.8817 9.808C34.1377 9.136 34.2737 8.456 34.2897 7.768C34.3057 7.048 34.1777 6.352 33.9057 5.68C33.6497 4.992 33.3137 4.408 32.8977 3.928C32.7857 3.8 32.6977 3.688 32.6337 3.592C32.5857 3.48 32.5617 3.368 32.5617 3.256C32.5617 3 32.6657 2.752 32.8737 2.512C33.0817 2.272 33.3217 2.072 33.5937 1.912C33.8657 1.752 34.0977 1.672 34.2897 1.672C34.6897 1.672 35.0257 1.968 35.2977 2.56C35.5857 3.136 35.8257 3.84 36.0177 4.672C36.2897 5.728 36.4817 6.912 36.5937 8.224C36.7057 9.536 36.7617 10.92 36.7617 12.376C36.7617 12.776 36.8017 13.048 36.8817 13.192C36.9617 13.336 37.1377 13.408 37.4097 13.408C37.9857 13.408 38.5457 13.2 39.0897 12.784C39.6337 12.368 40.1137 11.8 40.5297 11.08C40.9617 10.344 41.2977 9.512 41.5377 8.584C41.7937 7.64 41.9217 6.648 41.9217 5.608C41.9217 4.824 41.8577 4.192 41.7297 3.712C41.6177 3.216 41.5057 2.864 41.3937 2.656C41.2337 2.352 41.1537 2.096 41.1537 1.888C41.1537 1.648 41.2577 1.424 41.4657 1.216C41.6897 0.991999 41.9537 0.807999 42.2577 0.663999C42.5617 0.52 42.8257 0.448 43.0497 0.448C43.4017 0.448 43.6497 0.6 43.7937 0.904C43.9537 1.192 44.0497 1.552 44.0817 1.984C44.1297 2.416 44.1537 2.824 44.1537 3.208C44.1537 4.312 44.0337 5.472 43.7937 6.688C43.5697 7.888 43.2417 9.064 42.8097 10.216C42.3777 11.352 41.8577 12.384 41.2497 13.312C40.6577 14.224 39.9857 14.96 39.2337 15.52C38.4817 16.064 37.6737 16.336 36.8097 16.336C36.2337 16.336 35.8097 16.208 35.5377 15.952C35.2657 15.696 35.0897 15.336 35.0097 14.872C34.9297 14.408 34.8897 13.864 34.8897 13.24C34.8897 12.872 34.8897 12.528 34.8897 12.208C34.9057 11.872 34.9137 11.568 34.9137 11.296C34.1777 12.944 33.2897 14.2 32.2497 15.064C31.2097 15.912 30.1697 16.336 29.1297 16.336ZM52.6356 16.336C52.0916 16.336 51.6676 16.184 51.3636 15.88C51.0756 15.56 50.9156 14.96 50.8836 14.08C50.8676 13.136 50.8196 12.2 50.7396 11.272C50.6596 10.344 50.5316 9.464 50.3556 8.632C50.1156 7.416 49.7876 6.32 49.3716 5.344C48.9556 4.368 48.3716 3.528 47.6196 2.824C47.4916 2.696 47.3876 2.576 47.3076 2.464C47.2276 2.352 47.1876 2.224 47.1876 2.08C47.1876 1.744 47.3636 1.424 47.7156 1.12C48.0676 0.799999 48.4836 0.639999 48.9636 0.639999C49.5236 0.639999 50.0036 0.879999 50.4036 1.36C50.8036 1.84 51.1476 2.512 51.4356 3.376C51.7716 4.256 52.0356 5.216 52.2276 6.256C52.4196 7.296 52.5476 8.36 52.6116 9.448C52.6916 10.52 52.7316 11.56 52.7316 12.568C52.7316 12.92 52.7796 13.152 52.8756 13.264C52.9716 13.376 53.1396 13.432 53.3796 13.432C53.9076 13.432 54.4276 13.272 54.9396 12.952C55.4676 12.632 55.9396 12.2 56.3556 11.656C56.7876 11.096 57.1316 10.48 57.3876 9.808C57.6436 9.136 57.7796 8.456 57.7956 7.768C57.8116 7.048 57.6836 6.352 57.4116 5.68C57.1556 4.992 56.8196 4.408 56.4036 3.928C56.2916 3.8 56.2036 3.688 56.1396 3.592C56.0916 3.48 56.0676 3.368 56.0676 3.256C56.0676 3 56.1716 2.752 56.3796 2.512C56.5876 2.272 56.8276 2.072 57.0996 1.912C57.3716 1.752 57.6036 1.672 57.7956 1.672C58.1956 1.672 58.5316 1.968 58.8036 2.56C59.0916 3.136 59.3316 3.84 59.5236 4.672C59.7956 5.728 59.9876 6.912 60.0996 8.224C60.2116 9.536 60.2676 10.92 60.2676 12.376C60.2676 12.776 60.3076 13.048 60.3876 13.192C60.4676 13.336 60.6436 13.408 60.9156 13.408C61.4916 13.408 62.0516 13.2 62.5956 12.784C63.1396 12.368 63.6196 11.8 64.0356 11.08C64.4676 10.344 64.8036 9.512 65.0436 8.584C65.2996 7.64 65.4276 6.648 65.4276 5.608C65.4276 4.824 65.3636 4.192 65.2356 3.712C65.1236 3.216 65.0116 2.864 64.8996 2.656C64.7396 2.352 64.6596 2.096 64.6596 1.888C64.6596 1.648 64.7636 1.424 64.9716 1.216C65.1956 0.991999 65.4596 0.807999 65.7636 0.663999C66.0676 0.52 66.3316 0.448 66.5556 0.448C66.9076 0.448 67.1556 0.6 67.2996 0.904C67.4596 1.192 67.5556 1.552 67.5876 1.984C67.6356 2.416 67.6596 2.824 67.6596 3.208C67.6596 4.312 67.5396 5.472 67.2996 6.688C67.0756 7.888 66.7476 9.064 66.3156 10.216C65.8836 11.352 65.3636 12.384 64.7556 13.312C64.1636 14.224 63.4916 14.96 62.7396 15.52C61.9876 16.064 61.1796 16.336 60.3156 16.336C59.7396 16.336 59.3156 16.208 59.0436 15.952C58.7716 15.696 58.5956 15.336 58.5156 14.872C58.4356 14.408 58.3956 13.864 58.3956 13.24C58.3956 12.872 58.3956 12.528 58.3956 12.208C58.4116 11.872 58.4196 11.568 58.4196 11.296C57.6836 12.944 56.7956 14.2 55.7556 15.064C54.7156 15.912 53.6756 16.336 52.6356 16.336ZM70.5256 16.216C70.0776 16.216 69.7096 16.072 69.4216 15.784C69.1496 15.496 69.0136 15.128 69.0136 14.68C69.0136 14.216 69.1656 13.832 69.4696 13.528C69.7736 13.224 70.1656 13.072 70.6456 13.072C71.0936 13.072 71.4536 13.208 71.7256 13.48C71.9976 13.752 72.1336 14.112 72.1336 14.56C72.1336 15.04 71.9816 15.44 71.6776 15.76C71.3736 16.064 70.9896 16.216 70.5256 16.216ZM80.6078 16.288C79.2798 16.288 78.3278 15.976 77.7518 15.352C77.1758 14.712 76.8878 13.872 76.8878 12.832C76.8878 12.56 76.9118 12.232 76.9598 11.848C77.0078 11.464 77.0718 11 77.1518 10.456C77.2798 9.672 77.3758 8.976 77.4398 8.368C77.5038 7.744 77.5358 7.064 77.5358 6.328C77.5358 5.48 77.5118 4.792 77.4638 4.264C77.1918 4.424 76.9918 4.504 76.8638 4.504C76.6078 4.504 76.4798 4.216 76.4798 3.64C76.4798 3.192 76.5758 2.816 76.7678 2.512C76.9758 2.192 77.3118 1.896 77.7758 1.624C78.2398 1.336 78.8238 1.088 79.5278 0.879999C80.2478 0.671999 81.0158 0.568 81.8318 0.568C83.1598 0.568 84.1678 0.872 84.8558 1.48C85.5438 2.088 85.8878 2.888 85.8878 3.88C85.8878 4.52 85.7518 5.112 85.4798 5.656C85.2078 6.2 84.8238 6.68 84.3278 7.096C86.3278 7.416 87.3278 8.568 87.3278 10.552C87.3278 11.624 87.0238 12.6 86.4158 13.48C85.8078 14.36 84.9838 15.048 83.9438 15.544C82.9358 16.04 81.8238 16.288 80.6078 16.288ZM81.5678 13.624C82.2878 13.624 82.9358 13.528 83.5118 13.336C84.1038 13.128 84.5758 12.832 84.9278 12.448C85.2798 12.064 85.4558 11.616 85.4558 11.104C85.4558 10.448 85.2238 9.984 84.7598 9.712C84.2958 9.44 83.7598 9.304 83.1518 9.304C82.8958 9.304 82.5758 9.328 82.1918 9.376C82.0318 9.408 81.8478 9.424 81.6398 9.424C81.2878 9.424 80.9918 9.28 80.7518 8.992C80.5278 8.704 80.4158 8.344 80.4158 7.912C80.4158 7.608 80.5518 7.416 80.8238 7.336C82.7758 6.824 83.7518 5.936 83.7518 4.672C83.7518 3.664 83.0558 3.16 81.6638 3.16C81.1518 3.16 80.5198 3.248 79.7678 3.424C79.7678 4.208 79.7278 5.032 79.6478 5.896C79.5678 6.744 79.4478 7.632 79.2878 8.56C79.1918 9.2 79.1118 9.744 79.0478 10.192C78.9998 10.624 78.9758 10.976 78.9758 11.248C78.9758 12.112 79.1918 12.728 79.6238 13.096C80.0558 13.448 80.7038 13.624 81.5678 13.624ZM92.9699 16.24C92.7779 16.24 92.5779 16.208 92.3699 16.144C92.1779 16.08 92.0179 15.928 91.8899 15.688C91.7619 15.448 91.6979 15.08 91.6979 14.584C91.6979 14.264 91.7219 13.856 91.7699 13.36C91.8339 12.848 91.8979 12.352 91.9619 11.872C92.0899 11.072 92.2019 10.192 92.2979 9.232C92.4099 8.272 92.4659 7.32 92.4659 6.376C92.4659 6.04 92.4579 5.688 92.4419 5.32C92.4259 4.952 92.3939 4.6 92.3459 4.264C92.2499 4.312 92.1379 4.36 92.0099 4.408C91.8979 4.44 91.8019 4.456 91.7219 4.456C91.5619 4.456 91.4499 4.376 91.3859 4.216C91.3379 4.04 91.3139 3.84 91.3139 3.616C91.3139 3.104 91.4339 2.696 91.6739 2.392C91.9299 2.072 92.3059 1.784 92.8019 1.528C93.4579 1.16 94.1539 0.895999 94.8899 0.735999C95.6419 0.559999 96.3539 0.472 97.0259 0.472C98.0179 0.472 98.8979 0.648 99.6659 1C100.434 1.352 101.034 1.848 101.466 2.488C101.898 3.128 102.114 3.896 102.114 4.792C102.114 5.72 101.89 6.544 101.442 7.264C101.01 7.984 100.45 8.576 99.7619 9.04C99.0899 9.488 98.4019 9.784 97.6979 9.928C97.9539 10.328 98.2259 10.728 98.5139 11.128C98.8179 11.528 99.1219 11.888 99.4259 12.208C100.338 13.152 101.266 13.624 102.21 13.624C102.466 13.624 102.69 13.608 102.882 13.576C102.978 13.56 103.058 13.6 103.122 13.696C103.202 13.776 103.242 13.944 103.242 14.2C103.242 14.504 103.178 14.816 103.05 15.136C102.922 15.44 102.706 15.696 102.402 15.904C102.098 16.112 101.682 16.216 101.154 16.216C100.53 16.216 99.9299 16.008 99.3539 15.592C98.7939 15.176 98.2739 14.648 97.7939 14.008C97.3139 13.352 96.8819 12.664 96.4979 11.944C96.1299 11.224 95.8179 10.56 95.5619 9.952C95.4979 9.776 95.4419 9.608 95.3939 9.448C95.3459 9.272 95.3219 9.104 95.3219 8.944C95.3219 8.672 95.4099 8.448 95.5859 8.272C95.7139 8.144 95.8899 8.056 96.1139 8.008C96.3539 7.96 96.6979 7.936 97.1459 7.936C97.9939 7.936 98.6819 7.704 99.2099 7.24C99.7379 6.776 100.002 6.176 100.002 5.44C100.002 4.64 99.6979 4.056 99.0899 3.688C98.4979 3.32 97.7699 3.136 96.9059 3.136C96.2019 3.136 95.4659 3.248 94.6979 3.472C94.6499 4.512 94.5379 5.704 94.3619 7.048C94.2659 7.848 94.1779 8.64 94.0979 9.424C94.0339 10.208 94.0019 10.92 94.0019 11.56C94.0019 12.12 94.0499 12.616 94.1459 13.048C94.2579 13.464 94.4739 13.824 94.7939 14.128C95.0179 14.352 95.1299 14.592 95.1299 14.848C95.1299 15.2 94.9299 15.52 94.5299 15.808C94.1299 16.096 93.6099 16.24 92.9699 16.24ZM108.417 16.24C108.033 16.24 107.721 16.136 107.481 15.928C107.241 15.72 107.121 15.296 107.121 14.656C107.121 14.336 107.153 13.92 107.217 13.408C107.281 12.896 107.345 12.384 107.409 11.872C107.585 10.736 107.713 9.752 107.793 8.92C107.873 8.088 107.913 7.24 107.913 6.376C107.913 5.576 107.865 4.832 107.769 4.144C107.689 3.456 107.473 2.864 107.121 2.368C106.993 2.16 106.929 2 106.929 1.888C106.929 1.696 107.033 1.496 107.241 1.288C107.465 1.064 107.729 0.879999 108.033 0.735999C108.353 0.591999 108.649 0.519999 108.921 0.519999C109.417 0.519999 109.745 0.743999 109.905 1.192C110.081 1.624 110.169 2.168 110.169 2.824C110.169 3.224 110.145 3.72 110.097 4.312C110.049 4.904 109.993 5.48 109.929 6.04C109.881 6.584 109.833 7.008 109.785 7.312C109.673 8.16 109.585 8.952 109.521 9.688C109.457 10.424 109.425 11.048 109.425 11.56C109.425 12.168 109.481 12.68 109.593 13.096C109.721 13.512 109.937 13.856 110.241 14.128C110.449 14.32 110.553 14.536 110.553 14.776C110.553 15.16 110.353 15.504 109.953 15.808C109.569 16.096 109.057 16.24 108.417 16.24ZM118.565 16.312C117.973 16.312 117.429 16.256 116.933 16.144C116.437 16.032 116.029 15.824 115.709 15.52C115.469 15.296 115.309 15.048 115.229 14.776C115.149 14.488 115.109 14.176 115.109 13.84C115.109 13.296 115.157 12.752 115.253 12.208C115.397 11.264 115.525 10.248 115.637 9.16C115.749 8.072 115.805 7.064 115.805 6.136C115.805 5.848 115.789 5.52 115.757 5.152C115.741 4.784 115.709 4.44 115.661 4.12C115.549 4.168 115.437 4.216 115.325 4.264C115.229 4.296 115.141 4.312 115.061 4.312C114.917 4.312 114.821 4.24 114.773 4.096C114.725 3.952 114.701 3.792 114.701 3.616C114.701 3.152 114.805 2.76 115.013 2.44C115.237 2.104 115.597 1.808 116.093 1.552C116.621 1.264 117.309 1.016 118.157 0.808C119.021 0.584 119.893 0.472 120.773 0.472C122.773 0.472 124.341 1.064 125.477 2.248C126.629 3.416 127.205 5.08 127.205 7.24C127.205 8.472 127.013 9.64 126.629 10.744C126.261 11.832 125.709 12.8 124.973 13.648C124.237 14.48 123.333 15.136 122.261 15.616C121.189 16.08 119.957 16.312 118.565 16.312ZM119.333 13.624C120.053 13.624 120.773 13.512 121.493 13.288C122.213 13.064 122.861 12.728 123.437 12.28C124.029 11.832 124.501 11.264 124.853 10.576C125.205 9.872 125.381 9.032 125.381 8.056C125.381 6.952 125.165 6.04 124.733 5.32C124.301 4.6 123.725 4.064 123.005 3.712C122.285 3.36 121.485 3.184 120.605 3.184C120.125 3.184 119.645 3.224 119.165 3.304C118.701 3.384 118.333 3.464 118.061 3.544C118.045 4.28 117.997 5 117.917 5.704C117.853 6.392 117.773 7.064 117.677 7.72C117.581 8.408 117.501 9.08 117.437 9.736C117.389 10.392 117.365 11.04 117.365 11.68C117.365 12.48 117.525 13.008 117.845 13.264C118.181 13.504 118.677 13.624 119.333 13.624ZM142.175 16.264C141.679 16.264 141.255 16.056 140.903 15.64C140.567 15.208 140.239 14.504 139.919 13.528C139.759 13.048 139.623 12.584 139.511 12.136C139.415 11.672 139.343 11.224 139.295 10.792C139.087 11.112 138.895 11.328 138.719 11.44C138.559 11.536 138.319 11.584 137.999 11.584C137.215 11.584 136.383 11.576 135.503 11.56C134.623 11.528 133.839 11.504 133.151 11.488C133.119 11.776 133.087 12.072 133.055 12.376C133.039 12.664 133.031 12.952 133.031 13.24C133.031 13.496 133.039 13.752 133.055 14.008C133.087 14.264 133.111 14.512 133.127 14.752C133.175 15.2 132.999 15.56 132.599 15.832C132.199 16.104 131.703 16.24 131.111 16.24C130.599 16.24 130.343 16.016 130.343 15.568C130.343 15.296 130.415 14.888 130.559 14.344C130.639 13.976 130.703 13.664 130.751 13.408C130.799 13.136 130.823 12.92 130.823 12.76C130.823 12.312 130.687 12.008 130.415 11.848C130.191 11.72 130.079 11.552 130.079 11.344C130.079 11.152 130.119 10.92 130.199 10.648C130.295 10.376 130.415 10.128 130.559 9.904C130.703 9.664 130.839 9.496 130.967 9.4C131.079 9.336 131.215 9.28 131.375 9.232C131.535 9.184 131.735 9.152 131.975 9.136C132.599 7.344 133.295 5.8 134.063 4.504C134.847 3.192 135.679 2.184 136.559 1.48C137.439 0.759999 138.335 0.399999 139.247 0.399999C139.807 0.399999 140.215 0.591999 140.471 0.975999C140.727 1.344 140.855 1.968 140.855 2.848V3.928C140.855 5.544 140.975 7.032 141.215 8.392C141.455 9.752 141.751 10.856 142.103 11.704C142.455 12.6 142.943 13.336 143.567 13.912C143.759 14.072 143.887 14.216 143.951 14.344C144.015 14.456 144.047 14.576 144.047 14.704C144.047 14.944 143.951 15.184 143.759 15.424C143.583 15.664 143.351 15.864 143.063 16.024C142.775 16.184 142.479 16.264 142.175 16.264ZM133.871 8.992C134.655 8.96 135.343 8.936 135.935 8.92C136.527 8.888 137.023 8.872 137.423 8.872H139.103C139.071 8.424 139.039 7.952 139.007 7.456C138.991 6.96 138.983 6.44 138.983 5.896V4.504C138.983 4.04 138.927 3.736 138.815 3.592C138.719 3.432 138.527 3.352 138.239 3.352C137.455 3.352 136.671 3.864 135.887 4.888C135.103 5.912 134.431 7.28 133.871 8.992ZM151.694 16.312C150.606 16.312 149.766 16.192 149.174 15.952C148.582 15.712 148.174 15.376 147.95 14.944C147.726 14.512 147.614 14 147.614 13.408C147.614 13.12 147.638 12.8 147.686 12.448C147.734 12.08 147.79 11.664 147.854 11.2C148.142 9.44 148.286 7.88 148.286 6.52C148.286 5.624 148.246 4.864 148.166 4.24C148.102 3.6 147.894 2.992 147.542 2.416C147.478 2.32 147.422 2.224 147.374 2.128C147.326 2.016 147.302 1.928 147.302 1.864C147.302 1.672 147.414 1.472 147.638 1.264C147.862 1.056 148.134 0.879999 148.454 0.735999C148.774 0.591999 149.078 0.519999 149.366 0.519999C149.91 0.519999 150.246 0.735999 150.374 1.168C150.518 1.6 150.59 2.216 150.59 3.016C150.59 3.32 150.558 3.808 150.494 4.48C150.43 5.136 150.334 5.976 150.206 7C150.078 7.992 149.982 8.848 149.918 9.568C149.854 10.288 149.822 10.864 149.822 11.296C149.822 11.936 149.894 12.424 150.038 12.76C150.198 13.08 150.454 13.304 150.806 13.432C151.158 13.56 151.654 13.624 152.294 13.624C152.982 13.624 153.638 13.568 154.262 13.456C154.886 13.328 155.494 13.136 156.086 12.88C156.166 12.848 156.238 12.824 156.302 12.808C156.366 12.792 156.422 12.784 156.47 12.784C156.614 12.784 156.75 12.872 156.878 13.048C157.006 13.224 157.07 13.472 157.07 13.792C157.07 14.496 156.686 15.048 155.918 15.448C154.894 16.024 153.486 16.312 151.694 16.312ZM161.602 16.24C161.25 16.24 160.946 16.152 160.69 15.976C160.45 15.784 160.33 15.344 160.33 14.656C160.33 14.304 160.362 13.88 160.426 13.384C160.506 12.872 160.586 12.344 160.666 11.8C160.794 11.032 160.922 10.192 161.05 9.28C161.178 8.352 161.242 7.432 161.242 6.52C161.242 5.56 161.21 4.824 161.146 4.312C161.082 3.8 161.01 3.384 160.93 3.064C160.898 2.888 160.866 2.728 160.834 2.584C160.818 2.44 160.81 2.28 160.81 2.104C160.81 1.592 160.97 1.208 161.29 0.951999C161.626 0.679999 161.994 0.543999 162.394 0.543999C162.794 0.543999 163.13 0.647999 163.402 0.855999C163.674 1.048 163.914 1.256 164.122 1.48C165.498 3.032 166.738 4.664 167.842 6.376C168.946 8.072 169.866 9.816 170.602 11.608C170.682 11.736 170.754 11.8 170.818 11.8C170.914 11.8 170.978 11.736 171.01 11.608C171.298 9.736 171.442 8.04 171.442 6.52C171.442 5.608 171.402 4.888 171.322 4.36C171.258 3.816 171.17 3.4 171.058 3.112C170.962 2.808 170.866 2.568 170.77 2.392C170.722 2.28 170.682 2.184 170.65 2.104C170.618 2.008 170.602 1.92 170.602 1.84C170.602 1.648 170.698 1.456 170.89 1.264C171.098 1.056 171.346 0.887999 171.634 0.759999C171.922 0.631999 172.202 0.568 172.474 0.568C172.858 0.568 173.138 0.696 173.314 0.951999C173.49 1.208 173.602 1.528 173.65 1.912C173.714 2.28 173.746 2.656 173.746 3.04C173.746 3.472 173.706 4.032 173.626 4.72C173.546 5.408 173.45 6.152 173.338 6.952C173.242 7.736 173.154 8.512 173.074 9.28C173.01 10.048 172.978 10.728 172.978 11.32C172.978 11.656 172.986 11.984 173.002 12.304C173.034 12.624 173.066 12.936 173.098 13.24C173.146 13.64 173.17 13.992 173.17 14.296C173.17 14.888 173.018 15.36 172.714 15.712C172.426 16.048 172.026 16.216 171.514 16.216C171.162 16.216 170.81 16.112 170.458 15.904C170.122 15.696 169.866 15.36 169.69 14.896C169.002 13.136 168.154 11.424 167.146 9.76C166.154 8.08 165.114 6.632 164.026 5.416C163.85 5.256 163.706 5.176 163.594 5.176C163.434 5.176 163.33 5.352 163.282 5.704C163.202 6.312 163.122 6.976 163.042 7.696C162.962 8.416 162.898 9.12 162.85 9.808C162.802 10.48 162.778 11.056 162.778 11.536C162.778 12.08 162.826 12.552 162.922 12.952C163.018 13.336 163.162 13.712 163.354 14.08C163.53 14.4 163.618 14.688 163.618 14.944C163.618 15.248 163.442 15.544 163.09 15.832C162.738 16.104 162.242 16.24 161.602 16.24ZM183.332 16.312C181.652 16.312 180.396 15.872 179.564 14.992C178.732 14.096 178.316 12.696 178.316 10.792C178.316 10.472 178.324 10.136 178.34 9.784C178.372 9.432 178.404 9.088 178.436 8.752C178.468 8.432 178.492 8.112 178.508 7.792C178.524 7.472 178.532 7.184 178.532 6.928C178.532 5.968 178.492 5.136 178.412 4.432C178.332 3.728 178.092 3.056 177.692 2.416C177.564 2.208 177.5 2.04 177.5 1.912C177.5 1.704 177.612 1.504 177.836 1.312C178.076 1.104 178.356 0.928 178.676 0.784C178.996 0.64 179.3 0.568 179.588 0.568C179.972 0.568 180.244 0.696 180.404 0.951999C180.58 1.208 180.692 1.528 180.74 1.912C180.788 2.28 180.812 2.656 180.812 3.04C180.812 3.44 180.788 3.88 180.74 4.36C180.708 4.84 180.652 5.36 180.572 5.92C180.508 6.528 180.444 7.168 180.38 7.84C180.332 8.496 180.308 9.16 180.308 9.832C180.308 10.76 180.468 11.504 180.788 12.064C181.124 12.608 181.572 13.008 182.132 13.264C182.708 13.504 183.348 13.624 184.052 13.624C185.284 13.624 186.212 13.312 186.836 12.688C187.46 12.048 187.892 11.216 188.132 10.192C188.244 9.728 188.332 9.2 188.396 8.608C188.46 8 188.492 7.384 188.492 6.76C188.492 5.976 188.436 5.224 188.324 4.504C188.228 3.784 188.028 3.152 187.724 2.608C187.66 2.48 187.604 2.368 187.556 2.272C187.508 2.176 187.484 2.072 187.484 1.96C187.484 1.736 187.58 1.52 187.772 1.312C187.964 1.088 188.204 0.911999 188.492 0.784C188.78 0.64 189.076 0.568 189.38 0.568C189.892 0.568 190.236 0.783999 190.412 1.216C190.588 1.648 190.676 2.152 190.676 2.728C190.676 3.08 190.644 3.592 190.58 4.264C190.532 4.936 190.46 5.656 190.364 6.424C190.268 7.192 190.172 7.92 190.076 8.608C189.98 9.28 189.892 9.8 189.812 10.168C189.412 12.072 188.708 13.576 187.7 14.68C186.692 15.768 185.236 16.312 183.332 16.312ZM198.718 16.288C197.39 16.288 196.438 15.976 195.862 15.352C195.286 14.712 194.998 13.872 194.998 12.832C194.998 12.56 195.022 12.232 195.07 11.848C195.118 11.464 195.182 11 195.262 10.456C195.39 9.672 195.486 8.976 195.55 8.368C195.614 7.744 195.646 7.064 195.646 6.328C195.646 5.48 195.622 4.792 195.574 4.264C195.302 4.424 195.102 4.504 194.974 4.504C194.718 4.504 194.59 4.216 194.59 3.64C194.59 3.192 194.686 2.816 194.878 2.512C195.086 2.192 195.422 1.896 195.886 1.624C196.35 1.336 196.934 1.088 197.638 0.879999C198.358 0.671999 199.126 0.568 199.942 0.568C201.27 0.568 202.278 0.872 202.966 1.48C203.654 2.088 203.998 2.888 203.998 3.88C203.998 4.52 203.862 5.112 203.59 5.656C203.318 6.2 202.934 6.68 202.438 7.096C204.438 7.416 205.438 8.568 205.438 10.552C205.438 11.624 205.134 12.6 204.526 13.48C203.918 14.36 203.094 15.048 202.054 15.544C201.046 16.04 199.934 16.288 198.718 16.288ZM199.678 13.624C200.398 13.624 201.046 13.528 201.622 13.336C202.214 13.128 202.686 12.832 203.038 12.448C203.39 12.064 203.566 11.616 203.566 11.104C203.566 10.448 203.334 9.984 202.87 9.712C202.406 9.44 201.87 9.304 201.262 9.304C201.006 9.304 200.686 9.328 200.302 9.376C200.142 9.408 199.958 9.424 199.75 9.424C199.398 9.424 199.102 9.28 198.862 8.992C198.638 8.704 198.526 8.344 198.526 7.912C198.526 7.608 198.662 7.416 198.934 7.336C200.886 6.824 201.862 5.936 201.862 4.672C201.862 3.664 201.166 3.16 199.774 3.16C199.262 3.16 198.63 3.248 197.878 3.424C197.878 4.208 197.838 5.032 197.758 5.896C197.678 6.744 197.558 7.632 197.398 8.56C197.302 9.2 197.222 9.744 197.158 10.192C197.11 10.624 197.086 10.976 197.086 11.248C197.086 12.112 197.302 12.728 197.734 13.096C198.166 13.448 198.814 13.624 199.678 13.624ZM211.224 16.24C210.84 16.24 210.528 16.136 210.288 15.928C210.048 15.72 209.928 15.296 209.928 14.656C209.928 14.336 209.96 13.92 210.024 13.408C210.088 12.896 210.152 12.384 210.216 11.872C210.392 10.736 210.52 9.752 210.6 8.92C210.68 8.088 210.72 7.24 210.72 6.376C210.72 5.576 210.672 4.832 210.576 4.144C210.496 3.456 210.28 2.864 209.928 2.368C209.8 2.16 209.736 2 209.736 1.888C209.736 1.696 209.84 1.496 210.048 1.288C210.272 1.064 210.536 0.879999 210.84 0.735999C211.16 0.591999 211.456 0.519999 211.728 0.519999C212.224 0.519999 212.552 0.743999 212.712 1.192C212.888 1.624 212.976 2.168 212.976 2.824C212.976 3.224 212.952 3.72 212.904 4.312C212.856 4.904 212.8 5.48 212.736 6.04C212.688 6.584 212.64 7.008 212.592 7.312C212.48 8.16 212.392 8.952 212.328 9.688C212.264 10.424 212.232 11.048 212.232 11.56C212.232 12.168 212.288 12.68 212.4 13.096C212.528 13.512 212.744 13.856 213.048 14.128C213.256 14.32 213.36 14.536 213.36 14.776C213.36 15.16 213.16 15.504 212.76 15.808C212.376 16.096 211.864 16.24 211.224 16.24ZM228.812 16.264C228.316 16.264 227.892 16.056 227.54 15.64C227.204 15.208 226.876 14.504 226.556 13.528C226.396 13.048 226.26 12.584 226.148 12.136C226.052 11.672 225.98 11.224 225.932 10.792C225.724 11.112 225.532 11.328 225.356 11.44C225.196 11.536 224.956 11.584 224.636 11.584C223.852 11.584 223.02 11.576 222.14 11.56C221.26 11.528 220.476 11.504 219.788 11.488C219.756 11.776 219.724 12.072 219.692 12.376C219.676 12.664 219.668 12.952 219.668 13.24C219.668 13.496 219.676 13.752 219.692 14.008C219.724 14.264 219.748 14.512 219.764 14.752C219.812 15.2 219.636 15.56 219.236 15.832C218.836 16.104 218.34 16.24 217.748 16.24C217.236 16.24 216.98 16.016 216.98 15.568C216.98 15.296 217.052 14.888 217.196 14.344C217.276 13.976 217.34 13.664 217.388 13.408C217.436 13.136 217.46 12.92 217.46 12.76C217.46 12.312 217.324 12.008 217.052 11.848C216.828 11.72 216.716 11.552 216.716 11.344C216.716 11.152 216.756 10.92 216.836 10.648C216.932 10.376 217.052 10.128 217.196 9.904C217.34 9.664 217.476 9.496 217.604 9.4C217.716 9.336 217.852 9.28 218.012 9.232C218.172 9.184 218.372 9.152 218.612 9.136C219.236 7.344 219.932 5.8 220.7 4.504C221.484 3.192 222.316 2.184 223.196 1.48C224.076 0.759999 224.972 0.399999 225.884 0.399999C226.444 0.399999 226.852 0.591999 227.108 0.975999C227.364 1.344 227.492 1.968 227.492 2.848V3.928C227.492 5.544 227.612 7.032 227.852 8.392C228.092 9.752 228.388 10.856 228.74 11.704C229.092 12.6 229.58 13.336 230.204 13.912C230.396 14.072 230.524 14.216 230.588 14.344C230.652 14.456 230.684 14.576 230.684 14.704C230.684 14.944 230.588 15.184 230.396 15.424C230.22 15.664 229.988 15.864 229.7 16.024C229.412 16.184 229.116 16.264 228.812 16.264ZM220.508 8.992C221.292 8.96 221.98 8.936 222.572 8.92C223.164 8.888 223.66 8.872 224.06 8.872H225.74C225.708 8.424 225.676 7.952 225.644 7.456C225.628 6.96 225.62 6.44 225.62 5.896V4.504C225.62 4.04 225.564 3.736 225.452 3.592C225.356 3.432 225.164 3.352 224.876 3.352C224.092 3.352 223.308 3.864 222.524 4.888C221.74 5.912 221.068 7.28 220.508 8.992ZM235.139 16.24C234.787 16.24 234.483 16.152 234.227 15.976C233.987 15.784 233.867 15.344 233.867 14.656C233.867 14.304 233.899 13.88 233.963 13.384C234.043 12.872 234.123 12.344 234.203 11.8C234.331 11.032 234.459 10.192 234.587 9.28C234.715 8.352 234.779 7.432 234.779 6.52C234.779 5.56 234.747 4.824 234.683 4.312C234.619 3.8 234.547 3.384 234.467 3.064C234.435 2.888 234.403 2.728 234.371 2.584C234.355 2.44 234.347 2.28 234.347 2.104C234.347 1.592 234.507 1.208 234.827 0.951999C235.163 0.679999 235.531 0.543999 235.931 0.543999C236.331 0.543999 236.667 0.647999 236.939 0.855999C237.211 1.048 237.451 1.256 237.659 1.48C239.035 3.032 240.275 4.664 241.379 6.376C242.483 8.072 243.403 9.816 244.139 11.608C244.219 11.736 244.291 11.8 244.355 11.8C244.451 11.8 244.515 11.736 244.547 11.608C244.835 9.736 244.979 8.04 244.979 6.52C244.979 5.608 244.939 4.888 244.859 4.36C244.795 3.816 244.707 3.4 244.595 3.112C244.499 2.808 244.403 2.568 244.307 2.392C244.259 2.28 244.219 2.184 244.187 2.104C244.155 2.008 244.139 1.92 244.139 1.84C244.139 1.648 244.235 1.456 244.427 1.264C244.635 1.056 244.883 0.887999 245.171 0.759999C245.459 0.631999 245.739 0.568 246.011 0.568C246.395 0.568 246.675 0.696 246.851 0.951999C247.027 1.208 247.139 1.528 247.187 1.912C247.251 2.28 247.283 2.656 247.283 3.04C247.283 3.472 247.243 4.032 247.163 4.72C247.083 5.408 246.987 6.152 246.875 6.952C246.779 7.736 246.691 8.512 246.611 9.28C246.547 10.048 246.515 10.728 246.515 11.32C246.515 11.656 246.523 11.984 246.539 12.304C246.571 12.624 246.603 12.936 246.635 13.24C246.683 13.64 246.707 13.992 246.707 14.296C246.707 14.888 246.555 15.36 246.251 15.712C245.963 16.048 245.563 16.216 245.051 16.216C244.699 16.216 244.347 16.112 243.995 15.904C243.659 15.696 243.403 15.36 243.227 14.896C242.539 13.136 241.691 11.424 240.683 9.76C239.691 8.08 238.651 6.632 237.563 5.416C237.387 5.256 237.243 5.176 237.131 5.176C236.971 5.176 236.867 5.352 236.819 5.704C236.739 6.312 236.659 6.976 236.579 7.696C236.499 8.416 236.435 9.12 236.387 9.808C236.339 10.48 236.315 11.056 236.315 11.536C236.315 12.08 236.363 12.552 236.459 12.952C236.555 13.336 236.699 13.712 236.891 14.08C237.067 14.4 237.155 14.688 237.155 14.944C237.155 15.248 236.979 15.544 236.627 15.832C236.275 16.104 235.779 16.24 235.139 16.24ZM253.15 16.216C252.702 16.216 252.334 16.072 252.046 15.784C251.774 15.496 251.638 15.128 251.638 14.68C251.638 14.216 251.79 13.832 252.094 13.528C252.398 13.224 252.79 13.072 253.27 13.072C253.718 13.072 254.078 13.208 254.35 13.48C254.622 13.752 254.758 14.112 254.758 14.56C254.758 15.04 254.606 15.44 254.302 15.76C253.998 16.064 253.614 16.216 253.15 16.216ZM264.816 16.312C263.68 16.312 262.68 16.056 261.816 15.544C260.968 15.032 260.312 14.304 259.848 13.36C259.384 12.416 259.152 11.296 259.152 10C259.152 8.768 259.352 7.584 259.752 6.448C260.152 5.312 260.728 4.296 261.48 3.4C262.232 2.504 263.136 1.792 264.192 1.264C265.248 0.736 266.44 0.472 267.768 0.472C268.76 0.472 269.576 0.624 270.216 0.927999C270.856 1.232 271.176 1.68 271.176 2.272C271.176 2.56 271.096 2.848 270.936 3.136C270.792 3.408 270.6 3.64 270.36 3.832C270.12 4.024 269.872 4.12 269.616 4.12C269.456 4.12 269.328 4.08 269.232 4C268.8 3.712 268.376 3.504 267.96 3.376C267.544 3.232 267.064 3.16 266.52 3.16C265.384 3.16 264.424 3.424 263.64 3.952C262.856 4.464 262.256 5.144 261.84 5.992C261.44 6.84 261.24 7.76 261.24 8.752C261.24 9.712 261.424 10.56 261.792 11.296C262.16 12.032 262.672 12.608 263.328 13.024C263.984 13.44 264.752 13.648 265.632 13.648C266.336 13.648 267.016 13.512 267.672 13.24C268.344 12.952 268.936 12.56 269.448 12.064C269.672 11.856 269.896 11.752 270.12 11.752C270.312 11.752 270.448 11.832 270.528 11.992C270.608 12.152 270.648 12.312 270.648 12.472C270.648 12.744 270.568 13.056 270.408 13.408C270.248 13.744 270 14.08 269.664 14.416C269.072 15.008 268.344 15.472 267.48 15.808C266.616 16.144 265.728 16.312 264.816 16.312ZM279.975 16.312C278.327 16.312 277.007 15.832 276.015 14.872C275.039 13.896 274.551 12.464 274.551 10.576C274.551 9.728 274.663 8.848 274.887 7.936C275.127 7.024 275.519 6.12 276.063 5.224C275.759 5.496 275.471 5.632 275.199 5.632C274.735 5.632 274.503 5.264 274.503 4.528C274.503 4 274.615 3.576 274.839 3.256C275.063 2.936 275.279 2.68 275.487 2.488C275.839 2.184 276.287 1.88 276.831 1.576C277.375 1.256 278.015 0.991999 278.751 0.784C279.487 0.576 280.311 0.472 281.223 0.472C283.367 0.472 284.975 1.08 286.047 2.296C287.135 3.496 287.679 5.168 287.679 7.312C287.679 8.576 287.495 9.752 287.127 10.84C286.759 11.928 286.231 12.88 285.543 13.696C284.871 14.512 284.063 15.152 283.119 15.616C282.175 16.08 281.127 16.312 279.975 16.312ZM280.815 13.624C281.615 13.624 282.399 13.44 283.167 13.072C283.951 12.704 284.591 12.12 285.087 11.32C285.599 10.504 285.855 9.448 285.855 8.152C285.855 6.936 285.623 5.968 285.159 5.248C284.695 4.512 284.103 3.984 283.383 3.664C282.679 3.328 281.935 3.16 281.151 3.16C280.559 3.16 280.023 3.24 279.543 3.4C279.079 3.544 278.663 3.704 278.295 3.88C277.879 4.52 277.487 5.304 277.119 6.232C276.751 7.144 276.567 8.112 276.567 9.136C276.567 10.16 276.767 11.008 277.167 11.68C277.567 12.336 278.087 12.824 278.727 13.144C279.383 13.464 280.079 13.624 280.815 13.624ZM292.049 16.24C291.745 16.24 291.537 16.152 291.425 15.976C291.313 15.8 291.257 15.608 291.257 15.4C291.257 14.408 291.353 13.272 291.545 11.992C291.753 10.712 292.001 9.44 292.289 8.176C292.545 7.104 292.825 6.104 293.129 5.176C293.449 4.248 293.729 3.488 293.969 2.896C294.321 2.064 294.721 1.432 295.169 1C295.633 0.551999 296.169 0.327999 296.777 0.327999C297.225 0.327999 297.625 0.479999 297.977 0.784C298.329 1.072 298.537 1.6 298.601 2.368C298.697 3.296 298.809 4.232 298.937 5.176C299.065 6.12 299.209 6.984 299.369 7.768C299.529 8.536 299.697 9.128 299.873 9.544C300.017 9.912 300.225 10.096 300.497 10.096C300.801 10.096 301.065 9.904 301.289 9.52C301.497 9.168 301.721 8.688 301.961 8.08C302.201 7.472 302.433 6.832 302.657 6.16C302.897 5.472 303.105 4.848 303.281 4.288C303.489 3.68 303.721 3.072 303.977 2.464C304.249 1.84 304.593 1.328 305.009 0.927999C305.425 0.511999 305.945 0.303999 306.569 0.303999C307.145 0.303999 307.553 0.503999 307.793 0.904C308.049 1.288 308.177 1.904 308.177 2.752C308.177 3.408 308.153 4.096 308.105 4.816C308.089 5.232 308.065 5.664 308.033 6.112C308.017 6.544 308.009 6.992 308.009 7.456C308.009 8.176 308.041 8.936 308.105 9.736C308.185 10.536 308.329 11.288 308.537 11.992C308.761 12.696 309.089 13.288 309.521 13.768C309.649 13.88 309.761 14.008 309.857 14.152C309.969 14.296 310.025 14.456 310.025 14.632C310.025 15.032 309.809 15.4 309.377 15.736C308.961 16.056 308.481 16.216 307.937 16.216C307.441 16.216 307.073 16.056 306.833 15.736C306.593 15.416 306.401 14.984 306.257 14.44C306.097 13.768 305.985 13.048 305.921 12.28C305.857 11.512 305.825 10.768 305.825 10.048C305.825 8.896 305.865 7.84 305.945 6.88C306.041 5.904 306.089 5.184 306.089 4.72C306.089 4.464 306.065 4.28 306.017 4.168C305.969 4.04 305.849 3.976 305.657 3.976C305.433 3.976 305.241 4.08 305.081 4.288C304.937 4.48 304.817 4.752 304.721 5.104C304.513 5.776 304.281 6.496 304.025 7.264C303.769 8.032 303.497 8.784 303.209 9.52C302.937 10.256 302.641 10.912 302.321 11.488C301.953 12.16 301.553 12.616 301.121 12.856C300.705 13.08 300.281 13.192 299.849 13.192C299.177 13.192 298.665 12.984 298.313 12.568C297.977 12.136 297.729 11.664 297.569 11.152C297.361 10.464 297.169 9.568 296.993 8.464C296.817 7.344 296.689 6.088 296.609 4.696C296.577 4.104 296.385 3.808 296.033 3.808C295.649 3.808 295.345 4.096 295.121 4.672C294.929 5.248 294.745 5.928 294.569 6.712C294.393 7.48 294.249 8.288 294.137 9.136C294.041 9.968 293.993 10.792 293.993 11.608C293.993 12.296 294.017 12.896 294.065 13.408C294.129 13.92 294.161 14.4 294.161 14.848C294.161 15.168 294.033 15.432 293.777 15.64C293.537 15.848 293.249 16 292.913 16.096C292.577 16.192 292.289 16.24 292.049 16.24Z" fill="#81444C"/>
</svg>
